<svg xmlns="http://www.w3.org/2000/svg" xmlns:xlink="http://www.w3.org/1999/xlink" width="500" zoomAndPan="magnify" viewBox="0 0 375 374.999991" height="500" preserveAspectRatio="xMidYMid meet" version="1.0"><defs><clipPath id="80d0a8237b"><path d="M 8.160156 58 L 229 58 L 229 317 L 8.160156 317 Z M 8.160156 58 " clip-rule="nonzero"/></clipPath><clipPath id="c4bf1d68ce"><path d="M 187 145 L 257.160156 145 L 257.160156 224 L 187 224 Z M 187 145 " clip-rule="nonzero"/></clipPath><clipPath id="fe3b364e32"><path d="M 123.855469 66.007812 L 366.855469 66.007812 L 366.855469 309.007812 L 123.855469 309.007812 Z M 123.855469 66.007812 " clip-rule="nonzero"/></clipPath></defs><g clip-path="url(#80d0a8237b)"><path fill="#000000" d="M 103.234375 114.941406 C 115.074219 117.058594 126.300781 120.066406 136.921875 123.964844 C 119.4375 124.074219 101.992188 131.359375 89.394531 145.824219 L 88.160156 147.289062 C 70.492188 168.871094 69.304688 199.816406 84.601562 222.65625 L 84.21875 221.957031 C 99.945312 250.847656 126.714844 276.199219 154.386719 284.351562 C 176.671875 290.914062 197.519531 292.65625 216.730469 289.546875 L 216.898438 289.433594 C 193.714844 307.546875 165.765625 316.636719 137.785156 316.714844 L 137.0625 316.714844 L 134.382812 316.679688 C 101.300781 315.90625 68.449219 302.53125 43.679688 276.574219 L 41.632812 274.375 C 19.417969 249.972656 8.261719 218.890625 8.160156 187.785156 L 8.160156 186.957031 L 8.203125 184.128906 C 8.75 161.894531 14.953125 139.777344 26.808594 120.207031 L 26.378906 120.328125 C 54.402344 112.574219 80.015625 110.789062 103.234375 114.941406 Z M 168.808594 242.460938 C 178.429688 237.882812 190.023438 240.105469 197.632812 247.710938 L 228.820312 278.882812 L 226.707031 280.945312 C 226.535156 281.109375 226.363281 281.273438 226.191406 281.4375 C 205.09375 287.117188 181.71875 286.207031 156.066406 278.652344 C 137.527344 273.191406 121.621094 259.796875 107.417969 243.320312 L 107.113281 243.148438 C 125.929688 253.34375 148.820312 253.316406 167.617188 243.070312 Z M 137.308594 58.066406 L 140.066406 58.097656 C 172.226562 58.785156 204.183594 71.398438 228.726562 95.9375 L 197.632812 127.035156 L 196.660156 127.957031 C 188.730469 135.109375 177.0625 136.816406 167.617188 131.671875 L 165.992188 130.816406 C 165.683594 130.660156 165.371094 130.503906 165.0625 130.351562 C 146.871094 120.171875 126.605469 113.089844 104.277344 109.09375 C 82.0625 105.121094 57.851562 106.367188 31.660156 112.808594 C 35.246094 107.703125 39.257812 102.808594 43.679688 98.171875 L 45.710938 96.089844 C 70.980469 70.742188 104.121094 58.066406 137.28125 58.066406 Z M 137.308594 58.066406 " fill-opacity="1" fill-rule="evenodd"/></g><g clip-path="url(#c4bf1d68ce)"><path fill="#000000" d="M 241.816406 147.210938 L 192.722656 175.554688 L 191.378906 176.476562 C 191.378906 176.476562 187.175781 179.292969 187.640625 185.25 C 188.046875 190.457031 191.757812 192.65625 191.757812 192.65625 L 242.972656 222.203125 C 242.972656 222.203125 246.984375 224.367188 251.972656 221.667969 C 257.550781 218.652344 257.167969 212.761719 257.167969 212.761719 L 257.167969 156.078125 C 257.167969 156.078125 257.171875 156.015625 257.171875 155.90625 L 257.171875 155.75 C 257.164062 154.597656 256.832031 150.65625 253.132812 147.929688 C 250.96875 146.335938 248.835938 145.839844 247.011719 145.839844 C 243.984375 145.839844 241.816406 147.210938 241.816406 147.210938 Z M 241.816406 147.210938 " fill-opacity="1" fill-rule="evenodd"/></g><g clip-path="url(#fe3b364e32)"><path fill="#000000" d="M 245.363281 66.007812 C 257.199219 166.070312 266.796875 175.667969 366.855469 187.503906 C 266.796875 199.351562 257.199219 208.949219 245.363281 309.007812 C 233.515625 208.949219 223.914062 199.351562 123.855469 187.503906 C 223.914062 175.667969 233.515625 166.070312 245.363281 66.007812 " fill-opacity="1" fill-rule="evenodd"/></g></svg>